# Blender 3.5.1
# www.blender.org
o grid
v -7.665603 0.746577 8.065726
v 8.344392 0.746577 8.065726
v -7.665603 -1.072740 8.065726
v 8.344392 -1.072740 8.065726
v 0.339395 0.746577 8.065726
v 8.344392 0.746575 -7.944269
v -7.665603 0.746575 -7.944269
v 8.344392 -1.072743 -7.944269
v -7.665603 -1.072743 -7.944269
v 0.339395 0.746575 -7.944269
v 8.344392 0.746577 8.065726
v 8.344392 0.746575 -7.944269
v 8.344392 -1.072740 8.065726
v 8.344392 -1.072743 -7.944269
v 8.344392 0.746576 0.060729
v -7.665603 0.746575 -7.944269
v -7.665603 0.746577 8.065726
v -7.665603 -1.072743 -7.944269
v -7.665603 -1.072740 8.065726
v -7.665603 0.746576 0.060729
v -7.665603 0.746577 8.065726
v 8.344392 0.746577 8.065726
v -7.301739 0.746577 7.701862
v 7.980528 0.746577 7.701862
v 0.339395 0.746577 8.065726
v 0.339395 0.746577 7.701862
v 8.344392 0.746575 -7.944269
v -7.665603 0.746575 -7.944269
v 7.980528 0.746575 -7.580405
v -7.301739 0.746575 -7.580405
v 0.339395 0.746575 -7.944269
v 0.339395 0.746575 -7.580405
v 8.344392 0.746577 8.065726
v 8.344392 0.746575 -7.944269
v 7.980528 0.746577 7.701862
v 7.980528 0.746575 -7.580405
v 8.344392 0.746576 0.060729
v 7.980528 0.746576 0.060729
v -7.665603 0.746575 -7.944269
v -7.665603 0.746577 8.065726
v -7.301739 0.746575 -7.580405
v -7.301739 0.746577 7.701862
v -7.665603 0.746576 0.060729
v -7.301739 0.746576 0.060729
v -7.301739 0.746577 7.701862
v 7.980528 0.746577 7.701862
v -6.937875 0.505552 7.337998
v 7.616664 0.505552 7.337998
v 0.339395 0.746577 7.701862
v 7.980528 0.746575 -7.580405
v -7.301739 0.746575 -7.580405
v 7.616664 0.505549 -7.216541
v -6.937875 0.505549 -7.216541
v 0.339395 0.746575 -7.580405
v 7.980528 0.746577 7.701862
v 7.980528 0.746575 -7.580405
v 7.616664 0.505552 7.337998
v 7.616664 0.505549 -7.216541
v 7.980528 0.746576 0.060729
v -7.301739 0.746575 -7.580405
v -7.301739 0.746577 7.701862
v -6.937875 0.505549 -7.216541
v -6.937875 0.505552 7.337998
v -7.301739 0.746576 0.060729
vn -0.0000 -0.0000 1.0000
vn -0.0000 -0.0000 -1.0000
vn 1.0000 -0.0000 -0.0000
vn -1.0000 -0.0000 -0.0000
vn -0.0000 1.0000 -0.0000
vn -0.0000 0.8337 -0.5522
vn -0.0000 0.8337 0.5522
vn -0.5522 0.8337 -0.0000
vn -0.3401 0.9404 -0.0000
vn 0.5522 0.8337 -0.0000
vn 0.3401 0.9404 -0.0000
vt 0.911764 0.647059
vt 0.911764 0.000000
vt 0.838235 0.647059
vt 0.838235 0.000000
vt 0.911764 0.323529
vt 0.838235 0.647059
vt 0.838235 0.000000
vt 0.764706 0.647059
vt 0.764706 0.000000
vt 0.838235 0.323529
vt 0.764706 0.647059
vt 0.764706 0.000000
vt 0.691176 0.647059
vt 0.691176 0.000000
vt 0.764706 0.323529
vt 0.617647 0.000000
vt 0.617647 0.647059
vt 0.691176 0.000000
vt 0.691176 0.647059
vt 0.617647 0.323529
vt 0.941176 0.000000
vt 0.941176 0.647059
vt 0.926470 0.014706
vt 0.926470 0.632353
vt 0.941176 0.323529
vt 0.926470 0.323529
vt 0.941176 0.647059
vt 0.941176 0.000000
vt 0.955882 0.632353
vt 0.955882 0.014706
vt 0.941176 0.323529
vt 0.955882 0.323529
vt 0.970588 0.000000
vt 0.970588 0.647059
vt 0.955882 0.014706
vt 0.955882 0.632353
vt 0.970588 0.323529
vt 0.955882 0.323529
vt 0.926470 0.000000
vt 0.926470 0.647059
vt 0.911765 0.014706
vt 0.911764 0.632353
vt 0.926470 0.323529
vt 0.911765 0.323529
vt 1.000000 0.000000
vt 1.000000 0.617647
vt 0.985294 0.014706
vt 0.985294 0.602941
vt 1.000000 0.308823
vt 0.970588 0.617647
vt 0.970588 0.000000
vt 0.985294 0.602941
vt 0.985294 0.014706
vt 0.970588 0.308823
vt 0.000000 0.617647
vt 0.000000 0.000000
vt 0.014706 0.602941
vt 0.014706 0.014706
vt 0.000000 0.308823
vt 0.617647 0.000000
vt 0.617647 0.617647
vt 0.602941 0.014706
vt 0.602941 0.602941
vt 0.617647 0.308823
s 1
f 1/1/1 3/3/1 5/5/1
f 2/2/1 5/5/1 4/4/1
f 3/3/1 4/4/1 5/5/1
f 7/7/2 10/10/2 9/9/2
f 10/10/2 6/6/2 8/8/2
f 8/8/2 9/9/2 10/10/2
f 11/11/3 13/13/3 15/15/3
f 14/14/3 12/12/3 15/15/3
f 13/13/3 14/14/3 15/15/3
f 19/19/4 17/17/4 20/20/4
f 16/16/4 18/18/4 20/20/4
f 18/18/4 19/19/4 20/20/4
f 22/22/5 26/26/5 25/25/5
f 25/25/5 23/23/5 21/21/5
f 23/23/5 25/25/5 26/26/5
f 26/26/5 22/22/5 24/24/5
f 28/28/5 32/32/5 31/31/5
f 31/31/5 29/29/5 27/27/5
f 29/29/5 31/31/5 32/32/5
f 32/32/5 28/28/5 30/30/5
f 34/34/5 38/38/5 37/37/5
f 37/37/5 35/35/5 33/33/5
f 36/36/5 38/38/5 34/34/5
f 35/35/5 37/37/5 38/38/5
f 40/40/5 44/44/5 43/43/5
f 43/43/5 41/41/5 39/39/5
f 42/42/5 44/44/5 40/40/5
f 41/41/5 43/43/5 44/44/5
f 46/46/6 48/48/6 49/49/6
f 49/49/6 47/47/6 45/45/6
f 47/47/6 49/49/6 48/48/6
f 51/51/7 53/53/7 54/54/7
f 54/54/7 52/52/7 50/50/7
f 52/52/7 54/54/7 53/53/7
f 56/56/8 58/58/9 59/59/8
f 59/59/8 57/57/9 55/55/8
f 57/57/9 59/59/8 58/58/9
f 61/61/10 63/63/11 64/64/10
f 64/64/10 62/62/11 60/60/10
f 62/62/11 64/64/10 63/63/11
f 57/57/9 58/58/9 62/62/11
f 62/62/11 63/63/11 57/57/9
